<?xml version="1.0" encoding="utf-8"?>
<!-- Generator: Adobe Illustrator 27.0.0, SVG Export Plug-In . SVG Version: 6.00 Build 0)  -->
<svg version="1.1" id="Layer_1" xmlns="http://www.w3.org/2000/svg" xmlns:xlink="http://www.w3.org/1999/xlink" x="0px" y="0px"
	 viewBox="0 0 1071 1182" enable-background="new 0 0 1071 1182" xml:space="preserve">
<g>
	<defs>
		<path id="XMLID_00000039845719973807483640000000628036492377169551_" d="M319.8,338.2c-93.9,19-164.3,90.4-204.2,177.5
			c-164.1,297.8,102.7,500.8,385.9,382.2C786.5,795.5,622,266.8,319.8,338.2z"/>
	</defs>
	<use xlink:href="#XMLID_00000039845719973807483640000000628036492377169551_"  overflow="visible" fill="#FFFFE6"/>
	<clipPath id="XMLID_00000066493177512630881620000014233758811876030104_">
		<use xlink:href="#XMLID_00000039845719973807483640000000628036492377169551_"  overflow="visible"/>
	</clipPath>
	
		<use xlink:href="#XMLID_00000039845719973807483640000000628036492377169551_"  overflow="visible" fill="none" stroke="#EE4244" stroke-width="19" stroke-miterlimit="10"/>
</g>
<rect x="-867" y="285" fill="#EE4244" width="333" height="375"/>
<rect x="-867" y="-173" fill="#FFFFE6" width="333" height="375"/>
<rect x="-867" y="743" fill="#2D0223" width="333" height="384"/>
<rect x="-867" y="1226" fill="#6B8E5A" width="333" height="384"/>
<rect x="-867" y="1728" fill="#5A6E8C" stroke="#EE4244" stroke-width="7" stroke-miterlimit="10" width="333" height="384"/>
<path fill="#FFFFE6" stroke="#EE4244" stroke-width="19" stroke-miterlimit="10" d="M505.1,554c-6,3.2-11.1,8.4-14.4,15.4
	c-3.1,6.5-4,13.9-3.2,21.1c1.5,13.8,9.8,27.5,23.2,32.5c24.1,8.9,53.7-14,51.1-39.5c-1.6-16.2-15.7-28.6-31-32.3
	C521.6,549,512.6,550,505.1,554z"/>
<path fill="#FFFFE6" stroke="#EE4244" stroke-width="19" stroke-miterlimit="10" d="M331.7,546.6c-28.7-3.4-54.9,29.4-45.4,56.7
	c9.6,27.3,50.5,36.5,70.8,15.9s10.6-61.4-16.7-70.6L331.7,546.6z"/>
<path fill="none" stroke="#EE4244" stroke-width="19" stroke-linecap="round" stroke-miterlimit="10" d="M323.9,677.3
	c-4.5,27.8,7.7,56.9,28.3,76.1c20.7,19.2,48.8,29,77,30.8c30.9,1.9,63.5-6.3,85.7-27.8c22.2-21.5,33.1-54.8,25.5-84.8"/>
<path fill="none" stroke="#EE4244" stroke-width="19" stroke-linecap="round" stroke-miterlimit="10" d="M401.9,646
	c0.3,14.7,3.6,28,15.1,35.1s27.6,5.5,37.7-3.5c10-9.1,10.4-21.1,8.4-37.2"/>
<path id="XMLID_00000155142417095955294020000006603005357040931763_" fill="#FFFFE6" stroke="#EE4244" stroke-width="19" stroke-miterlimit="10" d="
	M727.7,756c33.1-25.9,45.7-69.3,59-109.1c13.3-39.8,32.6-82.6,71-99.4c37.6-16.4,84.9-0.3,109.4,32.6c24.5,33,27.4,79,12.8,117.4
	c-14.6,38.4-45,71-50.1,111.7c-5,39.7,15.3,77.6,23.6,116.8c15.1,71-12.8,149.5-69.3,195.1s-139.1,56.3-205.3,26.6
	c-66.3-29.7-113.2-98.4-116.8-171c-3.5-72.5,36.5-145.5,99.5-181.6L727.7,756z"/>
<path fill="#FFFFE6" stroke="#EE4244" stroke-width="19" stroke-miterlimit="10" d="M844,600.7c15.3,0.7,28,7,27,24.7
	c-0.6,11-8.8,23.4-1.9,31.7c5.7,6.9,16.7,3.7,23.7-1.8c7-5.5,13.6-13.1,22.3-13.7c11.6-0.8,20.4,11.4,22.8,23.2s0.8,24.3,3.4,36.1
	c2.6,11.8,13.7,20.5,25.2,19c17.5-2.4,11.4-41.1,28.9-42.7c7.6-0.7,24.9,16.8,32.3,14.8c6.6-1.8,10.7-9.1,11.4-16.1
	c0.7-7.1-1.4-14-3.4-20.8c-12.5-41.6-26.6-85.7-59.3-112.8c-21.4-17.7-49.5-26.1-76.7-23c-27.9,3.2-59.6,16.8-80.9,36
	c-9.6,8.6-23.5,18.3-31.4,28.2c-10.3,12.8-8.3,36.5,11.9,26.5C808.6,605.4,827.8,600,844,600.7z"/>
<path fill="none" stroke="#EE4244" stroke-width="19" stroke-linecap="round" stroke-miterlimit="10" d="M341.4,591.2
	c-0.8-1.1-1.6-2.2-2.4-3.2c1.5-2.2,4.9-2.8,7.1-1.2c2.2,1.6,2.6,5,1,7.1c-1.2,0.1-2.4,0.3-3.6,0.4"/>
<path fill="none" stroke="#EE4244" stroke-width="19" stroke-linecap="round" stroke-miterlimit="10" d="M540.9,589
	c-1.5-0.8-3-1.6-4.4-2.4c-1.2,1.8-1.1,4.4,0.3,6.1c1.4,1.6,4,2.2,5.9,1.2"/>
<path fill="#FFFFE6" stroke="#EE4244" stroke-width="19" stroke-linecap="round" stroke-linejoin="round" stroke-miterlimit="10" d="
	M174.7,360.5c-22.6-2.4-67,1.1-89.4,4.4C62.9,368,40.6,377.6,27,395.2c-13.6,17.6-16.4,44-2.9,62C37.5,475,63,480.6,85,476.5
	c22-4.1,41.3-16.1,60-27.9c-15,15.9-30.4,32.3-37.9,52.7c-7.5,20.4-5.3,45.9,11.3,60.7c15.6,13.9,40.5,14.6,58.8,4.9
	s30.7-27.8,37.3-47.2c6.7-19.3,8.3-40,9.9-60.4c26.3,29.9,68.9,45.4,108.4,39.3c22.9-3.5,47.3-17.6,49.5-40.2
	c1.6-16.5-9.8-32.3-24.2-41.3c-14.4-9-31.6-12.5-48.3-15.8c23,0.8,46.6,1.6,68.2-5.8c21.6-7.4,41-24.9,43.3-47.2
	c2.8-27.2-22.1-52.6-49.8-56.7s-55.6,9.5-74.3,29.6c15.3-20.7,2-53.6-22.3-63.7c-24.3-10.1-53.7-0.3-71.1,18.8
	S175.9,334.8,174.7,360.5z"/>
<path fill="none" stroke="#EE4244" stroke-width="19" stroke-linecap="round" stroke-linejoin="round" stroke-miterlimit="10" d="
	M196.5,389.2c-55.5-21.3-80.9-91.9-64.1-148.9s66.8-99.3,121.7-122c83.5-34.5,182.6-28.6,261.5,15.4c67.1,37.4,117.2,98.7,163.6,160
	s91.9,125,153.8,170.5s144.8,70.3,216.8,43.4"/>
<path fill="#FFFFE6" stroke="#EE4244" stroke-width="19" stroke-linecap="round" stroke-linejoin="round" stroke-miterlimit="10" d="
	M317.6,209.8c24.8,24.7,63.9,33.8,97.1,22.7c11.1-3.7,22-10,27.6-20.2c2.8-5-32.9-37.9-37.3-41.9c-14.3-13.2-30-24.8-46.7-34.8
	c-25.4-15.2-72.5-33.8-68.2,15C292.2,172.6,301.9,194.2,317.6,209.8z"/>
<path fill="#FFFFE6" stroke="#EE4244" stroke-width="19" stroke-linecap="round" stroke-linejoin="round" stroke-miterlimit="10" d="
	M90.1,169.5c-8.3-17.7-0.2-41.4,17.2-50.3c17.5-8.9,41.4-1.5,50.8,15.6C183,180.2,111.9,215.9,90.1,169.5z"/>
<path fill="none" stroke="#EE4244" stroke-width="19" stroke-miterlimit="10" d="M671.5,1011.3c-5.5,14.7-2,32.4,8.7,43.9
	c5.8,6.3,13.6,10.7,22,12.1c12.6,2.1,26.2-3.2,34-13.3c7.9-10.1,9.7-24.5,4.6-36.3"/>
<path fill="none" stroke="#EE4244" stroke-width="19" stroke-miterlimit="10" d="M651.3,965.5c26.9-16.3,0.3-54.3-25.6-41.7
	C597.3,937.7,623.9,982.1,651.3,965.5z"/>
<path fill="none" stroke="#EE4244" stroke-width="19" stroke-miterlimit="10" d="M776.8,995.6c9.8,4.8,22,6.1,31.2,0.2
	c26.2-16.7-0.1-49.1-22.2-52.5C752.4,938.4,751,982.9,776.8,995.6z"/>
<line fill="none" stroke="#EE4244" stroke-width="19" stroke-linecap="round" stroke-linejoin="round" stroke-miterlimit="10" x1="777.3" y1="969.4" x2="779.4" y2="969.4"/>
<line fill="none" stroke="#EE4244" stroke-width="19" stroke-linecap="round" stroke-linejoin="round" stroke-miterlimit="10" x1="632.3" y1="944.4" x2="634.4" y2="944.4"/>
<path fill="#FFFFE6" stroke="#EE4244" stroke-width="19" stroke-miterlimit="10" d="M708.1,197.7c17.5-42.5,55.2-76.2,99.5-88.7
	c32.5,38.3,42.1,94.5,24.3,141.4c-12.2,32.2-60.6,94.5-102.2,84.7C683,324.1,695.6,228,708.1,197.7z"/>
<path fill="#FFFFE6" stroke="#EE4244" stroke-width="19" stroke-miterlimit="10" d="M434.5,933.6c25.7-6.7,53.9-0.4,76,14.4
	c17.4,11.7,31.7,29.1,36.6,49.5c14.7,61.8-49.6,101.2-103.5,93.8c-46.5-6.4-65-42.7-64.8-87.3C378.8,970.5,402,942.1,434.5,933.6z"
	/>
<path fill="#FFFFE6" stroke="#EE4244" stroke-width="19" stroke-miterlimit="10" d="M645.9,497.6c-20.3-4.7-37.4-21.1-43.1-41.1
	c-1.7-5.9-2.4-12.5,0.5-18c2.9-5.4,10.3-8.7,15.5-5.4c4.2,2.7,5.9,8.9,10.7,10.3c4.9,1.5,9.7-3.2,11-8.1c1.2-4.9,0.1-10.1,0.1-15.2
	c0-5.1,1.5-10.8,6.1-13.1c5.2-2.6,11.6,0.8,15.2,5.4s5.4,10.3,8.9,15s9.6,8.3,15,6.1c8.2-3.4,6.8-16,12.6-22.7
	c4.4-5.1,12.8-5.7,18.6-2.3c5.8,3.5,9.3,10.1,10.1,16.9c0.8,6.7-0.6,13.6-2.6,20c-4.4,13.8-11.4,26.5-18.5,39.2"/>
<path fill="#FFFFE6" stroke="#EE4244" stroke-width="19" stroke-miterlimit="10" d="M717.3,696.4c4.2,8.4,10.5,18,19.9,17.6
	c6.9-0.3,12.4-6.6,14.2-13.3c1.8-6.7,0.6-13.8-0.5-20.6c-9-54.2-18-108.3-27.1-162.5c-1.2-7.2-2.4-14.4-5.5-21
	c-22-46.9-88.4-14.7-75.5,32.2C658.6,586.1,690.8,643.4,717.3,696.4z"/>
<path fill="#FFFFE6" stroke="#EE4244" stroke-width="19" stroke-miterlimit="10" d="M533.3,244.4c4.7,6.7,11.4,11.8,18,16.7
	c5.6,4.2,11.3,8.4,17.9,10.6c36.7,12.1,32.2-48.7,13.9-63.9C559.6,188.3,512.3,214.1,533.3,244.4z"/>
<path fill="#FFFFE6" stroke="#EE4244" stroke-width="19" stroke-miterlimit="10" d="M457.1,43.7c4.9-11,14.8-21.7,26.8-20.8
	c6.4,0.5,12.1,4.1,16.5,8.8c19.6,20.5,13.2,63.8-16.5,72.3C448.7,114,447.7,64.8,457.1,43.7z"/>
<path fill="#EE4244" d="M-144.5,433.1c-6.4,0-6.4,10,0,10C-138.1,443.1-138.1,433.1-144.5,433.1z"/>
</svg>
