<?xml version="1.0" encoding="utf-8"?>
<!-- Generator: Adobe Illustrator 27.0.0, SVG Export Plug-In . SVG Version: 6.00 Build 0)  -->
<svg version="1.1" id="Layer_1" xmlns="http://www.w3.org/2000/svg" xmlns:xlink="http://www.w3.org/1999/xlink" x="0px" y="0px"
	 viewBox="0 0 1713.3 1843.1" style="enable-background:new 0 0 1713.3 1843.1;" xml:space="preserve">
<style type="text/css">
	.st0{fill:#B8DCAF;stroke:#330027;stroke-width:19.58;stroke-miterlimit:10;}
	.st1{fill:#B8DCAF;}
	.st2{fill:#608F55;stroke:#330027;stroke-width:19.58;stroke-miterlimit:10;}
	.st3{fill:#E8CCFF;}
	.st4{fill:#E8CCFF;stroke:#330027;stroke-width:19.58;stroke-miterlimit:10;}
	.st5{fill:#330027;}
	.st6{fill:#330027;stroke:#330027;stroke-width:19.58;stroke-miterlimit:10;}
	.st7{fill:#D53D40;stroke:#330027;stroke-width:19.58;stroke-miterlimit:10;}
	.st8{fill:#FFFFFF;stroke:#330027;stroke-width:19.58;stroke-miterlimit:10;}
	.st9{fill:#FFDFBA;stroke:#330027;stroke-width:19.58;stroke-miterlimit:10;}
	.st10{fill:none;stroke:#330027;stroke-width:19.58;stroke-miterlimit:10;}
	.st11{fill:#E7CA70;stroke:#330027;stroke-width:19.58;stroke-miterlimit:10;}
	.st12{font-family:'ArialRoundedMTBold';}
	.st13{font-size:145.33px;}
	.st14{font-size:148.79px;}
</style>
<path class="st0" d="M569.2,991.9c0,0-209,18.6-252.4,210.7s-51.6,660.4,662.6,629.2s828.2-456.3,647.8-761.7
	S569.2,991.9,569.2,991.9L569.2,991.9z"/>
<path class="st1" d="M223.1,1469.4c0,0,236.1,330,345.7,338.2s174.8-120,174.8-120l-47.3-260.4l-431.1,37.9"/>
<path class="st0" d="M223.1,1469.4c0,0,236.1,330,345.7,338.2s174.8-120,174.8-120"/>
<path class="st2" d="M682.3,1050l-24.3,30.5c-20.2,25.3-14.3,62.5,12.7,80.4l116.5,77.2c29.1,19.3,67.5,17.1,94.2-5.3l141.6-119
	l-306.8-88.2L682.3,1050L682.3,1050z"/>
<path class="st2" d="M979.4,1128.8l137.7,91.9c23.6,15.8,54.9,13.9,76.4-4.6l150.8-129.3c29.8-25.6,29.4-71.8-0.8-96.9l-69.9-58
	L979.4,1128.8L979.4,1128.8z"/>
<path class="st0" d="M1101.6,1672.5c0,0,149.6,160.4,371.3,62.2c221.7-98.2,272.4-396.8,199.6-569"/>
<ellipse transform="matrix(0.9474 -0.32 0.32 0.9474 -420.7998 186.3772)" class="st2" cx="356.8" cy="1373.8" rx="187.9" ry="102.3"/>
<ellipse class="st2" cx="1188.2" cy="1559.4" rx="177.5" ry="129.5"/>
<path class="st3" d="M411.5,530.7c0,0-110,298.5,65.3,429c175.3,130.6,432.8,162.3,727.5,61.6l89.5-63.4c0,0,31.7-446.3-3-518.9
	c-34.7-72.5-630.2-26.4-630.2-26.4L411.5,530.7L411.5,530.7z"/>
<path class="st4" d="M1326.3,847.2c0,0-22.1,199-111.6,255.8c-89.5,56.8-439.8,58.2-498.5,10.8c-15.3-12.4-21.2-62.1-21.2-62.1"/>
<path class="st4" d="M411.5,530.7c0,0-110,298.5,65.3,429c175.3,130.6,432.8,162.3,727.5,61.6"/>
<path class="st5" d="M382.2,717.2c0,0,86.3-75.8,794.7-116.3l-99.1-85.9l-418.5-78.1l-195.8,74.2l-81.3,93L382.2,717.2L382.2,717.2z
	"/>
<path class="st6" d="M994.9,598.8c0,0-142.3,129.2-54.4,176.1c87.9,46.9,147.2-92.1,147.2-92.1l65.3,59.5c0,0-57.1,181.6,108.6,161
	c165.7-20.6,147.7-368,25.9-409.9C1165.9,451.4,994.9,598.8,994.9,598.8L994.9,598.8z"/>
<path class="st2" d="M408.6,320c0,0-269.5-56-324.3,105S255.5,701.3,742,587.8C1228.4,474.2,408.6,320,408.6,320L408.6,320z"/>
<path class="st7" d="M346.4,392c0,0-19.4,80.4,145.8,141.4c165.2,61,357.1,61,357.1,61s269.3,19.3,348.2-8.9
	c78.9-28.3,110.1-65.5,110.1-65.5S1275,174.7,961,115.2C647,55.7,376.1,271.5,346.4,392z"/>
<path class="st2" d="M1037.8,38.3c-25.7,16.2-42.1,41.6-57.9,67.1c0,0-89.7-102.9-131.8-95.2c-42.1,7.8,45.4,100.2,45.4,100.2
	s-120.8-15.4-125.3,23.1s86.6,40.8,86.6,40.8s-48.2,57.2-24,70.3c25.2,13.7,103.5-30,103.5-30s0.2,79.8,34,89.6s49.3-78.8,49.3-78.8
	s58.4,70,101.5,49.2c43.2-20.8-54-98.7-54-98.7s96.3,11.2,96.9-25.2c0.6-36.1-143.9-35.4-146.1-35.4c-2.4,0,7.1-20.9,8.4-23
	c5.2-8.3,11.9-15.5,19.5-21.6c8.6-7,18.1-12.7,27.9-17.9c8.5-4.5,17.2-6.8,25.8-10.7c0.3-0.1,0.4-0.5,0.1-0.7
	c-2.2-2.2-10.2-13.5-15.4-21c-2.6-3.8-7.7-4.8-11.6-2.4c-10,6.1-19.6,12.4-29.8,18.3C1039.8,37,1038.8,37.6,1037.8,38.3L1037.8,38.3
	z"/>
<ellipse class="st8" cx="569.4" cy="755.7" rx="96.6" ry="105"/>
<ellipse class="st8" cx="766.5" cy="742.2" rx="96.6" ry="105"/>
<circle class="st5" cx="554" cy="759.5" r="32.6"/>
<circle class="st5" cx="748.9" cy="742.2" r="32.6"/>
<path class="st4" d="M1037.1,867c0,0-393.9,126-607.2,45.6"/>
<path class="st9" d="M1031.4,832.9c0,0-6.6,37,19.8,59.5"/>
<path class="st4" d="M1079.6,699.1c0,0,91.5-122.1,146.5-21.6c44.6,81.4-102.4,114.6-102.4,114.6"/>
<path class="st10" d="M1062.3,725.1c0,0,58.9-89.1,114.5-91.8"/>
<polygon class="st5" points="716.3,1113.8 1051.2,1071.8 696.4,1060.8 "/>
<g>
	<path class="st4" d="M297.2,1272.9L185,1435c0,0,90.7,27.2,204.5-4.7c113.8-31.9,118.5-126.8,120.8-219.7
		c2.3-92.9-105.1-120.1-105.1-120.1c18.7-85.3-2-104.6-35.3-112.6s-48,44-38.6,87.3l12.4,51.7c0,0,11.2,60.2,62.1,59.1
		c0,0-48.5,124.7,4.4,192"/>
	<path class="st11" d="M164.2,990.6l90.4-22.1c26.3-6.4,52.8,9.8,59,36.2l74.6,316.8c5.8,24.8-8.4,49.9-32.6,57.6l-144.2,40
		c-27.8,8.9-65.4,0.4-71-28.2l-65.1-328.8c-0.2-1.2-0.4-2.4-0.6-3.6c-2.8-27.6,11.7-49,36.5-55L164.2,990.6z"/>
	<path class="st8" d="M116.1,1073.7l58.6,281.6c3.6,17.2,20.8,28,37.9,23.6l115.9-29.7c16.3-4.2,26.2-20.6,22.4-37l-65.2-276.8
		c-3.9-16.5-20.4-26.8-36.9-23l-109.2,24.9C123.1,1041.1,112.7,1057.2,116.1,1073.7L116.1,1073.7z"/>
	
		<ellipse transform="matrix(0.7075 -0.7067 0.7067 0.7075 -803.4507 374.5349)" class="st4" cx="50.7" cy="1157.8" rx="40.9" ry="41"/>
	
		<ellipse transform="matrix(0.7074 -0.7068 0.7068 0.7074 -857.8643 407.0341)" class="st4" cx="62.7" cy="1239.7" rx="40.9" ry="41"/>
	
		<ellipse transform="matrix(0.7075 -0.7067 0.7067 0.7075 -909.2626 446.2952)" class="st4" cx="84.5" cy="1321.5" rx="40.9" ry="41"/>
	<circle class="st4" cx="103.6" cy="1394.8" r="32.4"/>
	<polygon class="st5" points="356.9,1173.8 378.2,1255.2 395.4,1209.6 393.7,1175.1 356.9,1165.6 	"/>
	<polyline class="st5" points="242.5,1444.5 376.1,1379.9 203.1,1428 223.1,1444.5 	"/>
</g>
<g>
	<path class="st4" d="M1009.7,1388.8c0,0-60.6,10-43.4,51.8c17.2,41.8,43-21.9,62.1,49.9c19.1,71.8,91.7-21.8,91.7-21.8l-21.6-62.6
		L1009.7,1388.8L1009.7,1388.8z"/>
	<path class="st4" d="M1041.2,1403.4L860,1364.2c-22.8-4.9-37.3-27.4-32.4-50.2s27.4-37.3,50.2-32.4l83.9,18.1l178.3,38.5"/>
	<polygon class="st3" points="1187.3,1512.8 1265.5,1564.6 1252.7,1595.3 1180.1,1616.1 1109.8,1560.7 1158.1,1519.4 	"/>
	<g>
		<path class="st4" d="M1068.3,1580.9l-16.6,2.4c-10,1.5-20.1-1.7-27.5-8.5l-17.3-16c-29.7-27.5-31.5-73.9-4.1-103.6l94.4-102.3
			c61.2-66.3,83.8,5.6,83.8,5.6c49.8-12,49.8,48.9,49.8,48.9c33.4,0.6,39.1,22.7,38.4,40.3c-0.6,15,4.8,29.6,15.4,40.3l17.8,17.9
			c12.2,12.3,19.8,28.4,21.4,45.7l0,0c2.8,30.1-12.7,59.1-39.5,73.2c-72.2,37.8-215.7,83.9-294.7-89.9"/>
		<line class="st10" x1="1187.3" y1="1553.3" x2="1240.3" y2="1495.9"/>
		<path class="st4" d="M1153.3,1391.3l-84,91c-25.6,27.7-26,70.2-1.1,98.5l17.9,20.3c8.3,9.4,20.5,14.4,33,13.5l55.8-3.9"/>
		<path class="st10" d="M1209.4,1429.9l-80.3,87.1c-12.3,13.3-12,33.9,0.6,46.9l43,44.4c4.7,4.8,11.6,6.8,18.2,5.1
			c25.3-6.6,85.7-25.4,70.6-52c-18.9-33.4-55.3-28.6-55.3-28.6"/>
	</g>
	<line class="st10" x1="1180.1" y1="1538.1" x2="1206.2" y2="1570.8"/>
</g>
<line class="st10" x1="536.9" y1="1343.9" x2="572" y2="1475.1"/>
<line class="st10" x1="1283.2" y1="1453.2" x2="1487" y2="1366.4"/>
<path class="st10" d="M1356.7,1280.6c0,0,73,29.9,45.8,119.6"/>
<text transform="matrix(1.16 0 0 1 164.9902 1179.7305)" class="st5 st12 st13">5</text>
<text transform="matrix(1.099 -0.3711 0.32 0.9474 214.8309 1322.1892)" class="st5 st12 st14">0</text>
<path class="st5" d="M972.8,1440.7c0,0,23.9-34.3,54.1-34.8l-39.1-10.1l-22.2,19.6L972.8,1440.7L972.8,1440.7z"/>
<path class="st5" d="M756.3,1823.3c0,0-58.6-23.3-12.6-126.3L645,1800.6L756.3,1823.3L756.3,1823.3z"/>
<path class="st5" d="M271.9,1527.2c0,0,12.2-21.5,87.4-39.4H238.9L271.9,1527.2z"/>
<path class="st5" d="M1039,1600.5c0,0,11.5,63,170.8,14.3l-114.7-9.2l-31.9-19.1h-40.2L1039,1600.5L1039,1600.5z"/>
<path class="st5" d="M1237.9,1548.2c0,0-32.6-4.9-25,16.2l-11.8,2.7l-2.8-23.3l11.4-8.9l12.1,1.5L1237.9,1548.2L1237.9,1548.2z"/>
</svg>
